{
    "asset" : {
        "generator" : "Khronos glTF Blender I/O v3.3.27",
        "version" : "2.0"
    },
    "scene" : 0,
    "scenes" : [
        {
            "name" : "Scene",
            "nodes" : [
                0
            ]
        }
    ],
    "nodes" : [
        {
            "mesh" : 0,
            "name" : "WaterStorer",
            "translation" : [
                2.711451530456543,
                1.6295770406723022,
                -1.45068359375
            ]
        }
    ],
    "materials" : [
        {
            "doubleSided" : true,
            "name" : "earthship-skin",
            "pbrMetallicRoughness" : {
                "baseColorFactor" : [
                    0.5277237296104431,
                    0.27920249104499817,
                    0.12229403108358383,
                    1
                ],
                "metallicFactor" : 0,
                "roughnessFactor" : 0.5
            }
        },
        {
            "doubleSided" : true,
            "name" : "winddow",
            "pbrMetallicRoughness" : {
                "baseColorFactor" : [
                    0.08016867935657501,
                    0.2542293965816498,
                    0.6981979608535767,
                    1
                ],
                "metallicFactor" : 0,
                "roughnessFactor" : 0.5
            }
        },
        {
            "doubleSided" : true,
            "name" : "top",
            "pbrMetallicRoughness" : {
                "baseColorFactor" : [
                    0.800000011920929,
                    0.800000011920929,
                    0.800000011920929,
                    1
                ],
                "metallicFactor" : 0,
                "roughnessFactor" : 0.5
            }
        }
    ],
    "meshes" : [
        {
            "name" : "Cylinder.033",
            "primitives" : [
                {
                    "attributes" : {
                        "POSITION" : 0,
                        "NORMAL" : 1,
                        "TEXCOORD_0" : 2
                    },
                    "indices" : 3,
                    "material" : 0
                },
                {
                    "attributes" : {
                        "POSITION" : 4,
                        "NORMAL" : 5,
                        "TEXCOORD_0" : 6
                    },
                    "indices" : 7,
                    "material" : 1
                },
                {
                    "attributes" : {
                        "POSITION" : 8,
                        "NORMAL" : 9,
                        "TEXCOORD_0" : 10
                    },
                    "indices" : 11,
                    "material" : 2
                }
            ]
        }
    ],
    "accessors" : [
        {
            "bufferView" : 0,
            "componentType" : 5126,
            "count" : 2900,
            "max" : [
                1.8951932191848755,
                0.38968390226364136,
                3.1880860328674316
            ],
            "min" : [
                -5.072873115539551,
                -1.5382567644119263,
                -1.2573670148849487
            ],
            "type" : "VEC3"
        },
        {
            "bufferView" : 1,
            "componentType" : 5126,
            "count" : 2900,
            "type" : "VEC3"
        },
        {
            "bufferView" : 2,
            "componentType" : 5126,
            "count" : 2900,
            "type" : "VEC2"
        },
        {
            "bufferView" : 3,
            "componentType" : 5123,
            "count" : 14298,
            "type" : "SCALAR"
        },
        {
            "bufferView" : 4,
            "componentType" : 5126,
            "count" : 89,
            "max" : [
                -1.0883537530899048,
                0.43402671813964844,
                2.1258065700531006
            ],
            "min" : [
                -2.623538017272949,
                -0.04589089751243591,
                0.5906223654747009
            ],
            "type" : "VEC3"
        },
        {
            "bufferView" : 5,
            "componentType" : 5126,
            "count" : 89,
            "type" : "VEC3"
        },
        {
            "bufferView" : 6,
            "componentType" : 5126,
            "count" : 89,
            "type" : "VEC2"
        },
        {
            "bufferView" : 7,
            "componentType" : 5123,
            "count" : 102,
            "type" : "SCALAR"
        },
        {
            "bufferView" : 8,
            "componentType" : 5126,
            "count" : 120,
            "max" : [
                1.4011335372924805,
                0.897712230682373,
                2.733933210372925
            ],
            "min" : [
                -0.14978498220443726,
                0.08234730362892151,
                1.1032034158706665
            ],
            "type" : "VEC3"
        },
        {
            "bufferView" : 9,
            "componentType" : 5126,
            "count" : 120,
            "type" : "VEC3"
        },
        {
            "bufferView" : 10,
            "componentType" : 5126,
            "count" : 120,
            "type" : "VEC2"
        },
        {
            "bufferView" : 11,
            "componentType" : 5123,
            "count" : 120,
            "type" : "SCALAR"
        }
    ],
    "bufferViews" : [
        {
            "buffer" : 0,
            "byteLength" : 34800,
            "byteOffset" : 0,
            "target" : 34962
        },
        {
            "buffer" : 0,
            "byteLength" : 34800,
            "byteOffset" : 34800,
            "target" : 34962
        },
        {
            "buffer" : 0,
            "byteLength" : 23200,
            "byteOffset" : 69600,
            "target" : 34962
        },
        {
            "buffer" : 0,
            "byteLength" : 28596,
            "byteOffset" : 92800,
            "target" : 34963
        },
        {
            "buffer" : 0,
            "byteLength" : 1068,
            "byteOffset" : 121396,
            "target" : 34962
        },
        {
            "buffer" : 0,
            "byteLength" : 1068,
            "byteOffset" : 122464,
            "target" : 34962
        },
        {
            "buffer" : 0,
            "byteLength" : 712,
            "byteOffset" : 123532,
            "target" : 34962
        },
        {
            "buffer" : 0,
            "byteLength" : 204,
            "byteOffset" : 124244,
            "target" : 34963
        },
        {
            "buffer" : 0,
            "byteLength" : 1440,
            "byteOffset" : 124448,
            "target" : 34962
        },
        {
            "buffer" : 0,
            "byteLength" : 1440,
            "byteOffset" : 125888,
            "target" : 34962
        },
        {
            "buffer" : 0,
            "byteLength" : 960,
            "byteOffset" : 127328,
            "target" : 34962
        },
        {
            "buffer" : 0,
            "byteLength" : 240,
            "byteOffset" : 128288,
            "target" : 34963
        }
    ],
    "buffers" : [
        {
            "byteLength" : 128528,
            "uri" : "data:application/octet-stream;base64,"
        }
    ]
}
